# xmcd CD database file
# Copyright (C) 1993-1998 Ti Kan
# 
# Track frame offsets:
#     150
#     24600
#     37162
#     55570
#     70575
#     86610
#     108302
#     127007
#     143977
#     156187
#     172960
#     188707
#     220277
#     231085
#     245397
#     264932
#     286597
#     310367
# 
# Disc length: 4532 seconds
# 
# Revision: 1
# Processed by: cddbd v1.4b41PL1 Copyright (c) Steve Scherf et al.
# Submitted via: DiscPlay 4.0.4
# 
DISCID=f711b212
DTITLE=Tom Waits - Drink At The Bar
DYEAR=1900
DGENRE=
TTITLE0=Spare Parts
TTITLE1=Invitation To The Blues
TTITLE2=Eggs And Sausage
TTITLE3=Depot, Depot
TTITLE4=The Piano Has Been Drinking (Not Me)
TTITLE5=Panties and A G-String
TTITLE6=Step Right Up
TTITLE7=Semi Suite
TTITLE8=Fumblin' With The Blues
TTITLE9=Midnight Lullaby
TTITLE10=Emotional Weather Report
TTITLE11=Intro/I Can't Wait To Get Off Work
TTITLE12=New Coat Of Paint
TTITLE13=Nobody
TTITLE14=Diamonds On My Windshield
TTITLE15=Grapefruit Moon
TTITLE16=The One That Got Away
TTITLE17=Small Change
EXTD=Recorded Live In Bremen Germany, April 26th 1977
EXTT0=
EXTT1=
EXTT2=
EXTT3=
EXTT4=
EXTT5=
EXTT6=
EXTT7=
EXTT8=
EXTT9=
EXTT10=
EXTT11=
EXTT12=
EXTT13=
EXTT14=
EXTT15=
EXTT16=
EXTT17=
PLAYORDER=
